# xmcd
#
# Track frame offsets:
#  150
#  19910
#  35105
#  53292
#  67959
#  91133
#  106883
#  121919
#  138700
#  155841
#  166940
#  186107
#  205873
#  220328
#  232492
#  251075
#  266392
#  274744
#  288270
#  299800
#  315675
#
# Disc length: 4436 seconds
#
# Revision: 0
# Processed by: cddbd v1.5.1PL0 Copyright (c) Steve Scherf et al.
# Submitted via: Collectorz.com Music Collector 6.9
#
DISCID=45115215
DTITLE=Various Artist - Honky Tonk 1
DYEAR=2000
DGENRE=
TTITLE0=Bellwether - Front Yard
TTITLE1=Gary Floyd Band - Can't Be Satisfied
TTITLE2=Gary Floyd Band - Honey Bee
TTITLE3=Steve Goodman - Video Tape
TTITLE4=Steve Goodman - The 20th Century Is Almost Over
TTITLE5=Tom Adler - The Compagny of a Song
TTITLE6=Tom Adler - Borrowed Car
TTITLE7=Billy Ray Cyrus - Could've Been Me
TTITLE8=Garth Brooks - Standing Outside the Fire
TTITLE9=Garth Brooks - Santa Looked a Lot Like Daddy
TTITLE10=Garth Brooks - Friends in Low Places
TTITLE11=Dave Matthews and Emmylou Harris - Long Black Veil
TTITLE12=Johnny Cash - I've Been Everywhere
TTITLE13=Johnny Cash - Sixteen Tons
TTITLE14=Johnny Cash and Marc O'Conner - The Devil Comes Back To Georgia
TTITLE15=Johnny Cash and Bob Dylan - You Are My Sunshine
TTITLE16=Johnny Cash and Bob Dylan - Girl From the North Country
TTITLE17=Highwaymen - Highwayman
TTITLE18=Willie Nelson - Take This Job And Shove It
TTITLE19=Willie Nelson and Julio Iglesias - To All the Girls I've Loved Before
TTITLE20=Willie Nelson and Ray Charles - Seven Spanisch Angels
EXTD=
EXTT0=
EXTT1=
EXTT2=
EXTT3=
EXTT4=
EXTT5=
EXTT6=
EXTT7=
EXTT8=
EXTT9=
EXTT10=
EXTT11=
EXTT12=
EXTT13=
EXTT14=
EXTT15=
EXTT16=
EXTT17=
EXTT18=
EXTT19=
EXTT20=
PLAYORDER=
